<?xml version="1.0" encoding="utf-8"?>
<!-- Generator: Adobe Illustrator 27.9.0, SVG Export Plug-In . SVG Version: 6.00 Build 0)  -->
<svg version="1.1" id="레이어_1" xmlns="http://www.w3.org/2000/svg" xmlns:xlink="http://www.w3.org/1999/xlink" x="0px"
	 y="0px" viewBox="0 0 143.6 143.6" style="enable-background:new 0 0 143.6 143.6;" xml:space="preserve">
<style type="text/css">
	.st0{fill:none;stroke:#000000;stroke-width:5;stroke-miterlimit:10;}
	.st1{font-size:141.6037px;}
	.st2{stroke:#000000;stroke-width:2;stroke-miterlimit:10;}
	.st3{fill:none;stroke:#D9D2E9;stroke-width:2.7;stroke-miterlimit:10;}
	.st4{fill:#D9D2E9;stroke:#D9D2E9;stroke-width:2.7;stroke-miterlimit:10;}
	.st5{fill:#D9D2E9;}
	.st6{font-family:'Arial-BoldMT';}
	.st7{font-size:32.7294px;}
	.st8{stroke:#D9D2E9;stroke-width:2.7;stroke-miterlimit:10;}
	.st9{fill:#D9D2E9;stroke:#D9D2E9;stroke-width:0.54;stroke-miterlimit:10;}
	.st10{stroke:#FFFFFF;stroke-width:10;stroke-miterlimit:10;}
	.st11{stroke:#000000;stroke-width:2.7;stroke-miterlimit:10;}
	.st12{fill:none;stroke:#000000;stroke-width:2.7;stroke-miterlimit:10;}
</style>
<g id="해설">
	<g>
		<path d="M1582.23,943.05l-32.46,32.46c-4.84,4.84-12.7,4.84-17.54,0l-32.46-32.46c-4.84-4.84-4.84-12.7,0-17.54l32.46-32.46
			c4.84-4.84,12.7-4.84,17.54,0l32.46,32.46C1587.07,930.35,1587.07,938.2,1582.23,943.05z"/>
		<path class="st0" d="M1584.84,1007.78l-87.69,0c-8.92,0-16.15-7.23-16.15-16.15l0-99.69c0-8.92,7.23-16.15,16.16-16.15l87.69,0
			c8.92,0,16.15,7.23,16.15,16.15l0,99.69C1601,1000.54,1593.77,1007.78,1584.84,1007.78z"/>
		<text transform="matrix(1 0 0 1 1494.4854 994.1027)" style="font-size:15px;">_SPEKTRE</text>
		
			<text transform="matrix(1 0 0 1 1525.4902 941.5065)" style="fill:#FFFFFF; font-family:'AdobeMyungjoStd-Medium-KSCpc-EUC-H'; font-size:30px;">pf</text>
	</g>
	<g>
		<path d="M1712.23,943.05l-32.46,32.46c-4.84,4.84-12.7,4.84-17.54,0l-32.46-32.46c-4.84-4.84-4.84-12.7,0-17.54l32.46-32.46
			c4.84-4.84,12.7-4.84,17.54,0l32.46,32.46C1717.07,930.35,1717.07,938.2,1712.23,943.05z"/>
		<path class="st0" d="M1714.84,1007.78l-87.69,0c-8.92,0-16.15-7.23-16.15-16.15l0-99.69c0-8.92,7.23-16.15,16.16-16.15l87.69,0
			c8.92,0,16.15,7.23,16.15,16.15l0,99.69C1731,1000.54,1723.77,1007.78,1714.84,1007.78z"/>
		<text transform="matrix(1 0 0 1 1618.0879 994.1027)" style="font-size:15px;">IDONTNOW</text>
		
			<text transform="matrix(1 0 0 1 1655.4902 941.5065)" style="fill:#FFFFFF; font-family:'AdobeMyungjoStd-Medium-KSCpc-EUC-H'; font-size:30px;">pf</text>
	</g>
	<g>
		<path d="M1842.23,943.05l-32.46,32.46c-4.84,4.84-12.7,4.84-17.54,0l-32.46-32.46c-4.84-4.84-4.84-12.7,0-17.54l32.46-32.46
			c4.84-4.84,12.7-4.84,17.54,0l32.46,32.46C1847.07,930.35,1847.07,938.2,1842.23,943.05z"/>
		<path class="st0" d="M1844.84,1007.78l-87.69,0c-8.92,0-16.15-7.23-16.15-16.15l0-99.69c0-8.92,7.23-16.15,16.16-16.15l87.69,0
			c8.92,0,16.15,7.23,16.15,16.15l0,99.69C1861,1000.54,1853.77,1007.78,1844.84,1007.78z"/>
		<text transform="matrix(1 0 0 1 1750.8184 994.1027)" style="font-size:15px;">COMMENT1</text>
		
			<text transform="matrix(1 0 0 1 1787.5 941.5065)" style="fill:#FFFFFF; font-family:'AdobeMyungjoStd-Medium-KSCpc-EUC-H'; font-size:30px;">pf</text>
	</g>
</g>
<g id="로고_x5B_고정_x5D_">
	<g>
		<text transform="matrix(0.8734 0 0 1 142.5515 114.5825)" class="st1">QS</text>
	</g>
	<g>
		<g>
			<path class="st2" d="M65.32,59L44.14,37.83c-3.58-3.58-3.58-9.38,0-12.96L65.32,3.68c3.58-3.58,9.38-3.58,12.96,0l21.18,21.18
				c3.58,3.58,3.58,9.38,0,12.96L78.28,59C74.7,62.58,68.9,62.58,65.32,59z"/>
			<path class="st2" d="M65.32,139.92l-21.18-21.18c-3.58-3.58-3.58-9.38,0-12.96L65.32,84.6c3.58-3.58,9.38-3.58,12.96,0
				l21.18,21.18c3.58,3.58,3.58,9.38,0,12.96l-21.18,21.18C74.7,143.5,68.9,143.5,65.32,139.92z"/>
			<path class="st2" d="M105.78,99.46L84.6,78.28c-3.58-3.58-3.58-9.38,0-12.96l21.18-21.18c3.58-3.58,9.38-3.58,12.96,0
				l21.18,21.18c3.58,3.58,3.58,9.38,0,12.96l-21.18,21.18C115.16,103.04,109.36,103.04,105.78,99.46z"/>
			<path class="st2" d="M24.86,99.46L3.68,78.28c-3.58-3.58-3.58-9.38,0-12.96l21.18-21.18c3.58-3.58,9.38-3.58,12.96,0L59,65.32
				c3.58,3.58,3.58,9.38,0,12.96L37.83,99.46C34.25,103.04,28.44,103.04,24.86,99.46z"/>
		</g>
		<g>
			<path d="M59.62,51.06l-7.53-7.53c-6.75-6.75-6.75-17.69,0-24.44l7.53-7.53c6.75-6.75,17.69-6.75,24.44,0l7.53,7.53
				c6.75,6.75,6.75,17.69,0,24.44l-7.53,7.53C77.31,57.81,66.37,57.81,59.62,51.06z"/>
			<circle class="st3" cx="71.8" cy="31.34" r="19.07"/>
			<line class="st4" x1="85.28" y1="17.86" x2="58.32" y2="44.83"/>
			<line class="st4" x1="85.28" y1="44.83" x2="58.32" y2="17.86"/>
		</g>
		<g>
			<path d="M19.13,91.55l-7.53-7.53c-6.75-6.75-6.75-17.69,0-24.44l7.53-7.53c6.75-6.75,17.69-6.75,24.44,0l7.53,7.53
				c6.75,6.75,6.75,17.69,0,24.44l-7.53,7.53C36.81,98.3,25.87,98.3,19.13,91.55z"/>
			<circle class="st3" cx="31.34" cy="71.8" r="19.07"/>
			<g>
				<text transform="matrix(1 0 0 1 21.0068 83.1687)" class="st5 st6 st7">?</text>
			</g>
		</g>
		<g>
			<path d="M100.04,91.55l-7.53-7.53c-6.75-6.75-6.75-17.69,0-24.44l7.53-7.53c6.75-6.75,17.69-6.75,24.44,0l7.53,7.53
				c6.75,6.75,6.75,17.69,0,24.44l-7.53,7.53C117.73,98.3,106.79,98.3,100.04,91.55z"/>
			<circle class="st8" cx="112.26" cy="71.8" r="19.07"/>
			<path class="st8" d="M107.79,75.27h-8.33c-1.62,0-2.94-1.32-2.94-2.94v-1.06c0-1.62,1.32-2.94,2.94-2.94h8.33
				c1.62,0,2.94,1.32,2.94,2.94v1.06C110.73,73.95,109.41,75.27,107.79,75.27z"/>
			<path class="st8" d="M125.06,75.27h-8.33c-1.62,0-2.94-1.32-2.94-2.94v-1.06c0-1.62,1.32-2.94,2.94-2.94h8.33
				c1.62,0,2.94,1.32,2.94,2.94v1.06C128,73.95,126.68,75.27,125.06,75.27z"/>
			<path class="st9" d="M117.97,73.45h-11.41c-0.77,0-1.4-0.63-1.4-1.4v-0.5c0-0.77,0.63-1.4,1.4-1.4h11.41c0.77,0,1.4,0.63,1.4,1.4
				v0.5C119.36,72.82,118.74,73.45,117.97,73.45z"/>
		</g>
		<g>
			<path d="M59.57,132.01l-7.52-7.52c-6.75-6.75-6.75-17.7,0-24.45l7.52-7.52c6.75-6.75,17.7-6.75,24.45,0l7.52,7.52
				c6.75,6.75,6.75,17.7,0,24.45l-7.52,7.52C77.28,138.76,66.33,138.76,59.57,132.01z"/>
			<circle class="st8" cx="71.8" cy="112.26" r="19.07"/>
			<path class="st10" d="M80.33,120.78"/>
			<path class="st10" d="M71.8,112.26"/>
			<path class="st8" d="M71.84,98.54v13.69c0,0.02-0.01,0.03-0.03,0.03H71.8c-0.02,0-0.03-0.01-0.03-0.03V98.54
				c0-0.02,0.01-0.03,0.03-0.03h0.01C71.83,98.51,71.84,98.52,71.84,98.54z"/>
			<path class="st8" d="M80.69,107.13l-8.87,5.12c-0.02,0.01-0.04,0-0.04-0.01l-0.01-0.01c-0.01-0.02,0-0.04,0.01-0.04l8.87-5.12
				c0.02-0.01,0.04,0,0.04,0.01l0.01,0.01C80.71,107.11,80.7,107.13,80.69,107.13z"/>
		</g>
		<line class="st11" x1="31.34" y1="31.34" x2="112.26" y2="112.26"/>
		<line class="st12" x1="31.34" y1="112.26" x2="112.26" y2="31.34"/>
	</g>
</g>
<g id="매치ID_x2F_라운드_x5B_가변_x5D_">
	<text transform="matrix(0.8734 0 0 1 1580.1201 114.6362)"><tspan x="0" y="0" style="font-size:141.6px;">W12</tspan><tspan x="5.18" y="37.2" style="font-size:31px;">QUARTERFINALS</tspan></text>
</g>
<g id="맵_정보">
	<path class="st0" d="M1850.67,854.28l-359.33,0c-11.23,0-20.34-9.1-20.34-20.34l0-594.33c0-11.23,9.1-20.33,20.33-20.34l359.33,0
		c11.23,0,20.34,9.1,20.34,20.33l0,594.33C1871,845.17,1861.9,854.28,1850.67,854.28z"/>
	<path class="st0" d="M1840.67,429.28l-339.33,0c-11.23,0-20.34-9.1-20.34-20.33l0-159.33c0-11.23,9.1-20.34,20.33-20.34l339.33,0
		c11.23,0,20.33,9.1,20.33,20.33l0,159.33C1861,420.17,1851.9,429.28,1840.67,429.28z"/>
	<path class="st0" d="M1601,299.28l-100,0c-5.52,0-10-4.48-10-10v-40c0-5.52,4.48-10,10-10l100,0c5.52,0,10,4.48,10,10v40
		C1611,294.8,1606.52,299.28,1601,299.28z"/>
	<path class="st0" d="M1840.67,539.28l-339.33,0c-11.23,0-20.33-9.1-20.34-20.33l0-59.33c0-11.23,9.1-20.34,20.33-20.34l339.33,0
		c11.23,0,20.33,9.1,20.34,20.33l0,59.33C1861,530.17,1851.9,539.28,1840.67,539.28z"/>
	<path class="st0" d="M1840.67,649.28l-339.33,0c-11.23,0-20.33-9.1-20.34-20.33l0-59.33c0-11.23,9.1-20.34,20.33-20.34l339.33,0
		c11.23,0,20.33,9.1,20.34,20.33l0,59.33C1861,640.17,1851.9,649.28,1840.67,649.28z"/>
	<path class="st0" d="M1585.5,744.28h-89c-8.56,0-15.5-6.94-15.5-15.5v-54c0-8.56,6.94-15.5,15.5-15.5h89
		c8.56,0,15.5,6.94,15.5,15.5v54C1601,737.34,1594.06,744.28,1585.5,744.28z"/>
	<path class="st0" d="M1715.5,744.28h-89c-8.56,0-15.5-6.94-15.5-15.5v-54c0-8.56,6.94-15.5,15.5-15.5h89
		c8.56,0,15.5,6.94,15.5,15.5v54C1731,737.34,1724.06,744.28,1715.5,744.28z"/>
	<path class="st0" d="M1845.5,744.28h-89c-8.56,0-15.5-6.94-15.5-15.5v-54c0-8.56,6.94-15.5,15.5-15.5h89
		c8.56,0,15.5,6.94,15.5,15.5v54C1861,737.34,1854.06,744.28,1845.5,744.28z"/>
	<path class="st0" d="M1585.5,839.28h-89c-8.56,0-15.5-6.94-15.5-15.5v-54c0-8.56,6.94-15.5,15.5-15.5h89
		c8.56,0,15.5,6.94,15.5,15.5v54C1601,832.34,1594.06,839.28,1585.5,839.28z"/>
	<path class="st0" d="M1715.5,839.28h-89c-8.56,0-15.5-6.94-15.5-15.5v-54c0-8.56,6.94-15.5,15.5-15.5h89
		c8.56,0,15.5,6.94,15.5,15.5v54C1731,832.34,1724.06,839.28,1715.5,839.28z"/>
	<path class="st0" d="M1845.5,839.28h-89c-8.56,0-15.5-6.94-15.5-15.5v-54c0-8.56,6.94-15.5,15.5-15.5h89
		c8.56,0,15.5,6.94,15.5,15.5v54C1861,832.34,1854.06,839.28,1845.5,839.28z"/>
	<text transform="matrix(1 0 0 1 1500.7803 282.8894)" style="font-size:45px;">DT2</text>
	<text transform="matrix(1 0 0 1 1686.5122 264.7768)" style="font-size:30px;">PICK 6/8</text>
	<text transform="matrix(1 0 0 1 1498.2695 408.2521)" style="font-size:45px;">SYSTEM SUN</text>
	<text transform="matrix(1 0 0 1 1650.1763 363.7651)" style="font-size:22.5px;">-45</text>
	<text id="MAPPER_x5B_고정_x5D_" transform="matrix(1 0 0 1 1615.5944 468.4025)" style="font-size:22.5px;">MAPPER</text>
	<text transform="matrix(1 0 0 1 1562.3483 628.2527)" style="font-size:45px;">INSANE</text>
	<text transform="matrix(1 0 0 1 1585.7252 518.252)" style="font-size:45px;">LASSE</text>
	<text transform="matrix(1 0 0 1 1523.4834 688.4025)" style="font-size:22.5px;">CS</text>
	<text transform="matrix(1 0 0 1 1652.5723 688.4021)" style="font-size:22.5px;">AR</text>
	<text transform="matrix(1 0 0 1 1780.7278 688.4023)" style="font-size:22.5px;">OD</text>
	<text transform="matrix(1 0 0 1 1523.2812 783.4021)" style="font-size:22.5px;">SR</text>
	<text transform="matrix(1 0 0 1 1771.9753 783.4019)" style="font-size:22.5px;">BPM</text>
	<text transform="matrix(1 0 0 1 1586.1414 578.4018)" style="font-size:22.5px;">DIFFICULTY</text>
	<text transform="matrix(1 0 0 1 1615.876 783.4023)" style="font-size:22.5px;">LENGTH</text>
	<text transform="matrix(1 0 0 1 1506.0889 724.2324)" style="font-size:41px;">4.2</text>
	<text transform="matrix(1 0 0 1 1637.708 724.2327)" style="font-size:41px;">9.7</text>
	<text transform="matrix(1 0 0 1 1766.2325 724.2325)" style="font-size:41px;">9.8</text>
	<text transform="matrix(1 0 0 1 1506.3145 819.2322)" style="font-size:41px;">7.0</text>
	<text transform="matrix(1 0 0 1 1625.2648 819.2323)" style="font-size:41px;">2:21</text>
	<text id="_x32_25_x5B_기뱐_x5D_" transform="matrix(1 0 0 1 1761.3942 819.2326)" style="font-size:41px;">225</text>
</g>
<g id="맵_리더보드">
	<g>
		<text transform="matrix(1 0 0 1 10.2195 416.9274)" style="font-size:30px;">2</text>
		<path d="M125.32,467.99L84.71,508.6c-7.57,7.57-19.85,7.57-27.42,0l-40.61-40.61c-7.57-7.57-7.57-19.85,0-27.42l40.61-40.61
			c7.57-7.57,19.85-7.57,27.42,0l40.61,40.61C132.89,448.14,132.89,460.42,125.32,467.99z"/>
		
			<text transform="matrix(1 0 0 1 56.6299 464.2773)" style="fill:#FFFFFF; font-family:'AdobeMyungjoStd-Medium-KSCpc-EUC-H'; font-size:30px;">pf</text>
		<path class="st0" d="M380.67,524.28l-359.33,0C10.1,524.28,1,515.17,1,503.94l0-99.33c0-11.23,9.1-20.34,20.33-20.34l359.33,0
			c11.23,0,20.33,9.1,20.33,20.33l0,99.33C401,515.17,391.9,524.28,380.67,524.28z"/>
		<text transform="matrix(1 0 0 1 140.9998 431.9274)" style="font-size:30px;">YHSPHD</text>
		<text transform="matrix(1 0 0 1 140.9999 494.8229)" style="font-size:59px;">727,727</text>
	</g>
	<g>
		<text transform="matrix(1 0 0 1 10.9998 251.9274)" style="font-size:30px;">1</text>
		<path d="M125.32,302.99L84.71,343.6c-7.57,7.57-19.85,7.57-27.42,0l-40.61-40.61c-7.57-7.57-7.57-19.85,0-27.42l40.61-40.61
			c7.57-7.57,19.85-7.57,27.42,0l40.61,40.61C132.89,283.14,132.89,295.42,125.32,302.99z"/>
		
			<text transform="matrix(1 0 0 1 56.6299 299.2773)" style="fill:#FFFFFF; font-family:'AdobeMyungjoStd-Medium-KSCpc-EUC-H'; font-size:30px;">pf</text>
		<path class="st0" d="M380.67,359.28l-359.33,0C10.1,359.28,1,350.17,1,338.94l0-99.33c0-11.23,9.1-20.34,20.33-20.34l359.33,0
			c11.23,0,20.33,9.1,20.33,20.33l0,99.33C401,350.17,391.9,359.28,380.67,359.28z"/>
		<text transform="matrix(1 0 0 1 140.9998 266.9274)" style="font-size:30px;">YHSPHD</text>
		<text transform="matrix(1 0 0 1 141 329.8229)" style="font-size:59px;">727,727</text>
	</g>
	<g>
		<path d="M125.32,467.99L84.71,508.6c-7.57,7.57-19.85,7.57-27.42,0l-40.61-40.61c-7.57-7.57-7.57-19.85,0-27.42l40.61-40.61
			c7.57-7.57,19.85-7.57,27.42,0l40.61,40.61C132.89,448.14,132.89,460.42,125.32,467.99z"/>
		
			<text transform="matrix(1 0 0 1 56.6299 464.2773)" style="fill:#FFFFFF; font-family:'AdobeMyungjoStd-Medium-KSCpc-EUC-H'; font-size:30px;">pf</text>
		<path class="st0" d="M380.67,524.28l-359.33,0C10.1,524.28,1,515.17,1,503.94l0-99.33c0-11.23,9.1-20.34,20.33-20.34l359.33,0
			c11.23,0,20.33,9.1,20.33,20.33l0,99.33C401,515.17,391.9,524.28,380.67,524.28z"/>
		<text transform="matrix(1 0 0 1 140.9998 431.9274)" style="font-size:30px;">YHSPHD</text>
		<text transform="matrix(1 0 0 1 140.9999 494.8229)" style="font-size:59px;">727,727</text>
	</g>
	<g>
		<text transform="matrix(1 0 0 1 10.1297 581.9274)" style="font-size:30px;">3</text>
		<path d="M125.32,632.99L84.71,673.6c-7.57,7.57-19.85,7.57-27.42,0l-40.61-40.61c-7.57-7.57-7.57-19.85,0-27.42l40.61-40.61
			c7.57-7.57,19.85-7.57,27.42,0l40.61,40.61C132.89,613.14,132.89,625.42,125.32,632.99z"/>
		
			<text transform="matrix(1 0 0 1 56.6299 629.2773)" style="fill:#FFFFFF; font-family:'AdobeMyungjoStd-Medium-KSCpc-EUC-H'; font-size:30px;">pf</text>
		<path class="st0" d="M380.67,689.28l-359.33,0C10.1,689.28,1,680.17,1,668.94l0-99.33c0-11.23,9.1-20.34,20.33-20.34l359.33,0
			c11.23,0,20.33,9.1,20.33,20.33l0,99.33C401,680.17,391.9,689.28,380.67,689.28z"/>
		<text transform="matrix(1 0 0 1 140.9998 596.9274)" style="font-size:30px;">YHSPHD</text>
		<text transform="matrix(1 0 0 1 140.9999 659.8229)" style="font-size:59px;">727,727</text>
	</g>
	<g>
		<text transform="matrix(1 0 0 1 9.3343 746.9274)" style="font-size:30px;">4</text>
		<path d="M125.32,797.99L84.71,838.6c-7.57,7.57-19.85,7.57-27.42,0l-40.61-40.61c-7.57-7.57-7.57-19.85,0-27.42l40.61-40.61
			c7.57-7.57,19.85-7.57,27.42,0l40.61,40.61C132.89,778.14,132.89,790.42,125.32,797.99z"/>
		
			<text transform="matrix(1 0 0 1 56.6299 794.2773)" style="fill:#FFFFFF; font-family:'AdobeMyungjoStd-Medium-KSCpc-EUC-H'; font-size:30px;">pf</text>
		<path class="st0" d="M380.67,854.28l-359.33,0C10.1,854.28,1,845.17,1,833.94l0-99.33c0-11.23,9.1-20.34,20.33-20.34l359.33,0
			c11.23,0,20.33,9.1,20.33,20.33l0,99.33C401,845.17,391.9,854.28,380.67,854.28z"/>
		<text transform="matrix(1 0 0 1 140.9998 761.9274)" style="font-size:30px;">YHSPHD</text>
		<text transform="matrix(1 0 0 1 140.9999 824.8229)" style="font-size:59px;">727,727</text>
	</g>
</g>
<g>
	<g>
		<text transform="matrix(1 0 0 1 436.0001 468.2525)" style="font-size:45px;">#1</text>
		<rect x="436" y="59.28" width="480" height="360"/>
		<path class="st0" d="M909.85,489.28l-467.69,0c-8.92,0-16.15-7.23-16.15-16.15l0-407.69c0-8.92,7.23-16.15,16.15-16.15l467.69,0
			c8.92,0,16.15,7.23,16.16,16.15l0,407.69C926,482.04,918.77,489.28,909.85,489.28z"/>
		<text transform="matrix(1 0 0 1 658.3785 468.2525)" style="font-size:45px;">7 POINTS</text>
	</g>
	<g>
		<text transform="matrix(1 0 0 1 956.0001 468.2525)" style="font-size:45px;">#2</text>
		<rect x="956" y="59.28" width="480" height="360"/>
		<path class="st0" d="M1429.84,489.28l-467.69,0c-8.92,0-16.16-7.23-16.16-16.15l0-407.69c0-8.92,7.23-16.15,16.15-16.15l467.69,0
			c8.92,0,16.15,7.23,16.15,16.15l0,407.69C1446,482.04,1438.77,489.28,1429.84,489.28z"/>
		<text transform="matrix(1 0 0 1 1174.3273 468.2525)" style="font-size:45px;">4 POINTS</text>
	</g>
	<g>
		<text transform="matrix(1 0 0 1 436.0001 928.2525)" style="font-size:45px;">#3</text>
		<rect x="436" y="519.28" width="480" height="360"/>
		<path class="st0" d="M909.85,949.28l-467.69,0c-8.92,0-16.15-7.23-16.15-16.15l0-407.69c0-8.92,7.23-16.15,16.15-16.15l467.69,0
			c8.92,0,16.15,7.23,16.16,16.15l0,407.69C926,942.04,918.77,949.28,909.85,949.28z"/>
		<text transform="matrix(1 0 0 1 656.713 928.2526)" style="font-size:45px;">3 POINTS</text>
	</g>
	<g>
		<text transform="matrix(1 0 0 1 956.0001 928.2525)" style="font-size:45px;">#4</text>
		<rect x="956" y="519.28" width="480" height="360"/>
		<path class="st0" d="M1429.84,949.28l-467.69,0c-8.92,0-16.16-7.23-16.16-16.15l0-407.69c0-8.92,7.23-16.15,16.15-16.15l467.69,0
			c8.92,0,16.15,7.23,16.15,16.15l0,407.69C1446,942.04,1438.77,949.28,1429.84,949.28z"/>
		<text transform="matrix(1 0 0 1 1179.3224 928.2526)" style="font-size:45px;">1 POINTS</text>
	</g>
</g>
</svg>
